<svg width="24" height="24" viewBox="0 0 24 24" fill="none" xmlns="http://www.w3.org/2000/svg">
<path d="M12 4L12.2774 3.58397C12.1094 3.47201 11.8906 3.47201 11.7226 3.58397L12 4ZM21 10L21.2773 10.416C21.4164 10.3233 21.5 10.1672 21.5 10C21.5 9.83282 21.4164 9.67671 21.2773 9.58397L21 10ZM12 16L11.7226 16.416C11.8906 16.528 12.1094 16.528 12.2774 16.416L12 16ZM3 10L2.72265 9.58397C2.58355 9.67671 2.5 9.83282 2.5 10C2.5 10.1672 2.58355 10.3233 2.72265 10.416L3 10ZM11.7226 4.41603L20.7227 10.416L21.2773 9.58397L12.2774 3.58397L11.7226 4.41603ZM20.7227 9.58397L11.7226 15.584L12.2774 16.416L21.2773 10.416L20.7227 9.58397ZM12.2774 15.584L3.27735 9.58397L2.72265 10.416L11.7226 16.416L12.2774 15.584ZM3.27735 10.416L12.2774 4.41603L11.7226 3.58397L2.72265 9.58397L3.27735 10.416Z" fill="black"/>
<path d="M21.2773 14.416C21.5071 14.2628 21.5692 13.9524 21.416 13.7226C21.2628 13.4929 20.9524 13.4308 20.7227 13.584L21.2773 14.416ZM12 20L11.7226 20.416C11.8906 20.528 12.1094 20.528 12.2774 20.416L12 20ZM3.27735 13.584C3.04759 13.4308 2.73715 13.4929 2.58397 13.7226C2.4308 13.9524 2.49289 14.2628 2.72265 14.416L3.27735 13.584ZM20.7227 13.584L11.7226 19.584L12.2774 20.416L21.2773 14.416L20.7227 13.584ZM12.2774 19.584L3.27735 13.584L2.72265 14.416L11.7226 20.416L12.2774 19.584Z" fill="black"/>
</svg>
